<svg width="50.000000" height="43.000000" viewBox="0 0 50 43" fill="none" xmlns="http://www.w3.org/2000/svg" xmlns:xlink="http://www.w3.org/1999/xlink">
	<desc>
			Created with Pixso.
	</desc>
	<defs>
		<clipPath id="clip575_351">
			<rect id="SVG" width="50.000000" height="40.000000" fill="white" fill-opacity="0"/>
		</clipPath>
		<linearGradient x1="5.335480" y1="29.759678" x2="45.650894" y2="-5.042301" id="paint_linear_575_358_0" gradientUnits="userSpaceOnUse">
			<stop stop-color="#2C63FF"/>
			<stop offset="0.993500" stop-color="#55CFFF"/>
		</linearGradient>
	</defs>
	<g clip-path="url(#clip575_351)">
		<mask id="mask575_353" mask-type="alpha" maskUnits="userSpaceOnUse" x="0.000000" y="0.000000" width="50.000000" height="40.000000">
			<path id="Vector" d="M0 0L50 0L50 40L0 40L0 0Z" fill="#000000" fill-opacity="1.000000" fill-rule="evenodd"/>
		</mask>
		<g mask="url(#mask575_353)">
			<path id="Vector" d="M23.45 0.65C12.73 0.65 4.04 9.43 4.04 20.26C4.04 31.1 12.73 39.88 23.45 39.88C34.17 39.88 42.86 31.1 42.86 20.26C42.86 9.43 34.17 0.65 23.45 0.65ZM23.48 36.57C14.55 36.57 7.31 29.26 7.31 20.24C7.31 11.22 14.55 3.91 23.48 3.91C32.4 3.91 39.64 11.22 39.64 20.24C39.64 29.26 32.4 36.57 23.48 36.57Z" fill="#4A4A4A" fill-opacity="1.000000" fill-rule="nonzero"/>
			<path id="Vector" d="M27.86 10.6C28.58 9.9 28.15 8.84 26.71 9.79C21.6 13.22 13.02 19.07 11.76 19.74C10.07 20.64 8.47 20.52 6.23 19.82C3.33 19.2 1.48 18.29 1.31 18.22C0.97 18.08 -1.24 16.66 2.68 14.99C6.48 13.37 18.78 7.96 24.47 5.62C26.66 4.69 33.63 1.95 33.63 1.95C33.63 1.95 37.69 0.4 37.32 3.85C37.19 5.16 36.61 9.76 35.85 14.71C34.69 21.79 33.48 28.57 33.36 29.33C33.27 29.85 32.74 32.45 31.01 32.53C29.23 32.62 27.3 31.05 26.63 30.6C25.98 30.15 17.84 24.64 17.23 24.16C16.87 23.88 16.34 23.27 16.35 22.67C16.35 21.8 17.14 20.95 17.61 20.51C18.08 20.08 26.99 11.45 27.86 10.6Z" fill="#FFFFFF" fill-opacity="1.000000" fill-rule="nonzero"/>
			<path id="Vector" d="M49.43 2.43C49.18 2.17 48.82 2.02 48.45 2.02L42.3 2.02C41.94 2.02 41.6 2.17 41.34 2.42C41.08 2.68 40.93 3.02 40.92 3.39C40.91 3.76 41.05 4.11 41.32 4.38C41.58 4.66 41.95 4.81 42.33 4.81L45.35 4.81L40.25 10.29C39.42 8.87 38.42 7.57 37.26 6.39C35.47 4.59 33.39 3.17 31.07 2.18C28.67 1.15 26.12 0.63 23.49 0.63C20.86 0.63 18.32 1.15 15.91 2.18C13.6 3.17 11.51 4.59 9.73 6.39C7.94 8.2 6.54 10.3 5.56 12.64C4.54 15.07 4.03 17.65 4.03 20.3C4.03 22.96 4.54 25.53 5.56 27.96C5.7 28.3 5.85 28.64 6.02 28.98L8.2 27.32L17.31 20.88C18.14 20.29 19.22 20.28 20.06 20.84L25.14 24.22C26.17 24.91 27.41 25.2 28.63 25.06C29.85 24.91 30.98 24.33 31.82 23.42L47.06 7.06L47.05 9.46C47.04 10.23 47.66 10.86 48.42 10.86L48.43 10.86C49.19 10.86 49.8 10.24 49.81 9.48L49.84 3.43C49.84 3.06 49.69 2.7 49.43 2.43ZM29.8 21.51L29.8 21.51C28.98 22.4 27.66 22.56 26.66 21.89L21.62 18.53C20.79 17.98 19.85 17.67 18.89 17.64C17.75 17.61 16.66 17.93 15.73 18.59L7.78 24.22C7.47 22.96 7.31 21.65 7.31 20.3C7.31 11.28 14.57 3.95 23.49 3.95C29.75 3.95 35.2 7.56 37.89 12.83L29.8 21.51Z" fill="url(#paint_linear_575_358_0)" fill-opacity="1.000000" fill-rule="nonzero"/>
			<path id="Vector" d="M33.63 1.95C33.63 1.95 26.66 4.69 24.47 5.62C18.78 7.96 6.48 13.37 2.68 14.99C-1.24 16.66 0.97 18.08 1.31 18.22C1.48 18.29 3.33 19.2 6.23 19.82C8.47 20.52 10.07 20.64 11.76 19.74C13.02 19.07 21.6 13.22 26.71 9.79C28.15 8.84 28.58 9.9 27.86 10.6C27.34 11.1 23.97 14.37 21.23 17.02C23.82 16.46 26.47 15.86 27.08 15.6C28.05 15.2 33.25 13.72 36.37 11.25C36.71 8.8 37.24 4.62 37.32 3.85C37.69 0.4 33.63 1.95 33.63 1.95Z" fill="#FFFFFF" fill-opacity="1.000000" fill-rule="nonzero"/>
		</g>
	</g>
</svg>
